<?xml version="1.0" encoding="iso-8859-1"?>
<!-- Generator: Adobe Illustrator 19.0.0, SVG Export Plug-In . SVG Version: 6.00 Build 0)  -->
<svg version="1.1" id="Capa_1" xmlns="http://www.w3.org/2000/svg" xmlns:xlink="http://www.w3.org/1999/xlink" x="0px" y="0px"
	 viewBox="0 0 512 512" style="enable-background:new 0 0 512 512;" xml:space="preserve">
<g>
	<g>
		<path d="M473.637,196.881c29.592-51.521-1.773-100.413-58.018-100.502c-0.088-56.173-48.911-87.632-100.502-58.018
			c-29.661-51.162-88.392-51.134-118.036,0C145.59,8.786,96.668,40.122,96.579,96.379c-59.404,0.093-87.633,48.942-58.018,100.502
			c-51.429,29.816-51.401,86.237,0,116.036c-29.595,51.527-1.426,102.41,58.018,102.504c0.093,59.343,48.883,87.646,100.502,58.004
			c29.803,51.437,88.238,51.432,118.036,0c51.5,29.62,100.408,1.454,100.502-58.004c55.06-0.087,88.242-49.882,58.018-102.503
			C524.34,283.523,525.232,226.793,473.637,196.881z M239.081,380.439c-72.687,0-131.833-61.147-131.833-133.849
			c0-59.806,48.668-108.474,108.474-108.474c49.503,0,91.79,40.286,91.79,89.789c0,41.253-35.575,74.827-76.843,74.827
			c-34.659,0-62.854-28.196-62.854-62.869c0-29.383,23.902-53.299,53.285-53.299c8.295,0,15.006,6.712,15.006,15.006
			c0,8.294-6.712,15.006-15.006,15.006c-12.837,0-23.272,10.448-23.272,23.286c0,18.113,14.728,32.856,32.841,32.856
			c24.723,0,46.83-20.107,46.83-44.814c0-32.958-28.819-59.777-61.777-59.777c-43.26,0-78.462,35.201-78.462,78.462
			c0,56.157,45.679,101.836,101.821,101.836c72.262,0,133.043-58.78,133.043-131.042c0-8.295,6.712-15.006,15.006-15.006
			c8.294,0,15.006,6.712,15.006,15.006C402.138,306.19,327.889,380.439,239.081,380.439z"/>
	</g>
</g>
<g>
</g>
<g>
</g>
<g>
</g>
<g>
</g>
<g>
</g>
<g>
</g>
<g>
</g>
<g>
</g>
<g>
</g>
<g>
</g>
<g>
</g>
<g>
</g>
<g>
</g>
<g>
</g>
<g>
</g>
</svg>
